<svg xmlns="http://www.w3.org/2000/svg" version="1.1" xmlns:xlink="http://www.w3.org/1999/xlink" xmlns:svgjs="http://svgjs.dev/svgjs" viewBox="0 0 800 800"><defs><filter id="bbburst-blur-1" x="-100%" y="-100%" width="400%" height="400%"><feGaussianBlur in="SourceGraphic" stdDeviation="1"></feGaussianBlur></filter><filter id="bbburst-blur-2" x="-100%" y="-100%" width="400%" height="400%"><feGaussianBlur in="SourceGraphic" stdDeviation="2"></feGaussianBlur></filter><filter id="bbburst-blur-3" x="-100%" y="-100%" width="400%" height="400%"><feGaussianBlur in="SourceGraphic" stdDeviation="4"></feGaussianBlur></filter><filter id="bbburst-blur-4" x="-100%" y="-100%" width="400%" height="400%"><feGaussianBlur in="SourceGraphic" stdDeviation="12"></feGaussianBlur></filter><symbol id="bbburst-shape-1" viewBox="0 0 194 167"><path d="m97 0 96.129 166.5H.871L97 0Z"></path></symbol><symbol id="bbburst-shape-4" viewBox="0 0 149 143"><path d="M71.647 2.781c.898-2.764 4.808-2.764 5.706 0l15.445 47.534a3 3 0 0 0 2.853 2.073h49.98c2.906 0 4.115 3.719 1.764 5.427L106.96 87.193a2.999 2.999 0 0 0-1.09 3.354l15.445 47.534c.898 2.764-2.266 5.062-4.617 3.354l-40.435-29.378a3 3 0 0 0-3.526 0l-40.435 29.378c-2.351 1.708-5.515-.59-4.617-3.354L43.13 90.547a3 3 0 0 0-1.09-3.354L1.605 57.815c-2.35-1.708-1.142-5.427 1.764-5.427h49.98a3 3 0 0 0 2.853-2.073L71.647 2.781Z"></path></symbol><symbol id="bbburst-shape-6" viewBox="0 0 133 116"><path d="M59.7487 10.2513c-13.6683-13.66839-35.8291-13.66839-49.4974 0-13.66839 13.6683-13.66839 35.8291 0 49.4974l49.4974-49.4974ZM66.5 66.5 41.7513 91.2487 66.5 115.997l24.7487-24.7483L66.5 66.5Zm56.249-6.7513c13.668-13.6683 13.668-35.8291 0-49.4974-13.669-13.66839-35.8294-13.66839-49.4977 0l49.4977 49.4974Zm-112.4977 0 31.5 31.5 49.4974-49.4974-31.5-31.5-49.4974 49.4974Zm80.9974 31.5 31.5003-31.5-49.4977-49.4974-31.5 31.5 49.4974 49.4974Z"></path></symbol><symbol id="bbburst-shape-8" viewBox="0 0 87 168"><path d="m12 12 31.2546 18.0749c16.4102 9.4902 20.014 31.6325 7.4603 45.8369L36.3296 92.1884c-12.5684 14.2206-8.9394 36.3916 7.5068 45.8636L75 156" stroke-width="14" stroke-linecap="round" stroke-linejoin="round"></path></symbol><symbol id="bbburst-shape-10" viewBox="0 0 145 145"><circle cx="72.5" cy="72.5" r="61.5" fill="none" stroke-width="22"></circle></symbol></defs><use xlink:href="#bbburst-shape-8" width="24.567268001216668" opacity="0.5228162643356763" transform="matrix(0.8130044454841636,0.5822574788038257,-0.5822574788038257,0.8130044454841636,435.8015192153401,-37.701887435834806)" fill="none" stroke="#ffbd9b" filter="url(#bbburst-blur-2)"></use><use xlink:href="#bbburst-shape-6" width="19.465736699993457" opacity="0.640617194257501" transform="matrix(0.9304041397931824,-0.36653531433643377,0.36653531433643377,0.9304041397931824,258.7634303930593,-129.67096143156144)" fill="#ffa6d5" filter="url(#bbburst-blur-1)"></use><use xlink:href="#bbburst-shape-10" width="25.331644182806524" opacity="0.40582887509508603" transform="matrix(0.9593351459100947,0.28226951273854795,-0.28226951273854795,0.9593351459100947,742.2647996893447,-102.04576893379323)" fill="none" stroke="#ffbd9b" filter="url(#bbburst-blur-2)"></use><use xlink:href="#bbburst-shape-10" width="14.531734610690647" opacity="0.8567763195552387" transform="matrix(0.9806826387053346,-0.19560562911619453,0.19560562911619453,0.9806826387053346,316.0964984123608,73.5822068460655)" fill="none" stroke="#00a19d"></use><use xlink:href="#bbburst-shape-4" width="25.721633700020263" opacity="0.461060423248544" transform="matrix(0.9594571677010232,0.2818544719303398,-0.2818544719303398,0.9594571677010232,645.8528956058781,-181.44600054980924)" fill="#00a19d" filter="url(#bbburst-blur-2)"></use><use xlink:href="#bbburst-shape-1" width="36.0308206248837" opacity="0.3899356551171579" transform="matrix(0.9531281021301806,-0.30256705195662004,0.30256705195662004,0.9531281021301806,-2.7899230882386234,-48.89795678719389)" fill="#00a19d" filter="url(#bbburst-blur-2)"></use><use xlink:href="#bbburst-shape-4" width="25.54166682732495" opacity="0.13457621867573988" transform="matrix(1.2490216785744148,-0.04944538857316736,0.04944538857316736,1.2490216785744148,727.0859762071626,42.57909679974688)" fill="#2c2891" filter="url(#bbburst-blur-3)"></use><use xlink:href="#bbburst-shape-6" width="40.049593973249586" opacity="0.13878060554828997" transform="matrix(0.9610820145027232,0.7992630114044984,-0.7992630114044984,0.9610820145027232,982.6169744477327,-266.108482808865)" fill="#ff5c58" filter="url(#bbburst-blur-3)"></use><use xlink:href="#bbburst-shape-1" width="25.060698742870102" opacity="0.4871537191460159" transform="matrix(0.8319083024437468,-0.5549131250251372,0.5549131250251372,0.8319083024437468,184.929228076084,-155.91462681238235)" fill="#2c2891" filter="url(#bbburst-blur-2)"></use><use xlink:href="#bbburst-shape-1" width="20.165340624207413" opacity="0.7406922448598445" transform="matrix(0.7295456209185948,0.6839321508735365,-0.6839321508735365,0.7295456209185948,569.7586709624983,35.61314122171905)" fill="#00a19d" filter="url(#bbburst-blur-1)"></use><use xlink:href="#bbburst-shape-10" width="30.552624731775374" opacity="0.37255939468880295" transform="matrix(0.9999672822863561,0.008089150563501669,-0.008089150563501669,0.9999672822863561,668.065404926751,35.40613435942282)" fill="none" stroke="#2c2891" filter="url(#bbburst-blur-2)"></use><use xlink:href="#bbburst-shape-10" width="12.236298289556704" opacity="0.741718533182419" transform="matrix(0.9792441768604845,0.20268409430646533,-0.20268409430646533,0.9792441768604845,544.0472420759935,-86.49250535921527)" fill="none" stroke="#2c2891" filter="url(#bbburst-blur-1)"></use><use xlink:href="#bbburst-shape-4" width="33.30468062061889" opacity="0.38027588191856365" transform="matrix(0.914596187617871,0.4043684132011996,-0.4043684132011996,0.914596187617871,768.1813207013627,196.66337138432056)" fill="#00a19d" filter="url(#bbburst-blur-2)"></use><use xlink:href="#bbburst-shape-10" width="40.70278835427202" opacity="0.1604239945370437" transform="matrix(0.9682173666337334,0.7906042821467885,-0.7906042821467885,0.9682173666337334,451.9421782151761,-291.3232015474582)" fill="none" stroke="#ffa6d5" filter="url(#bbburst-blur-3)"></use><use xlink:href="#bbburst-shape-6" width="33.38584825025237" opacity="0.21065563507823948" transform="matrix(1.1930636101427752,0.37296008117905616,-0.37296008117905616,1.1930636101427752,556.1103157397897,270.7385181313643)" fill="#ffa6d5" filter="url(#bbburst-blur-3)"></use><use xlink:href="#bbburst-shape-6" width="40.46522170401207" opacity="0.17527164825303387" transform="matrix(1.2461598220378098,0.09790657760688992,-0.09790657760688992,1.2461598220378098,135.37073532700953,144.76924854706112)" fill="#00a19d" filter="url(#bbburst-blur-3)"></use><use xlink:href="#bbburst-shape-4" width="29.500019936222273" opacity="0.15357299318597672" transform="matrix(0.9526801651191859,0.809259231018393,-0.809259231018393,0.9526801651191859,1079.6328999945952,-83.40797610962915)" fill="#ffa6d5" filter="url(#bbburst-blur-3)"></use><use xlink:href="#bbburst-shape-4" width="36.759923608896464" opacity="0.43544693366717024" transform="matrix(0.8450059852734737,-0.5347568464751115,0.5347568464751115,0.8450059852734737,223.08537248600697,320.41937400334484)" fill="#ffa6d5" filter="url(#bbburst-blur-2)"></use><use xlink:href="#bbburst-shape-8" width="27.38977159318856" opacity="0.5134373474778795" transform="matrix(0.8192884192419556,0.5733816234376696,-0.5733816234376696,0.8192884192419556,829.4722944001534,121.66879430067956)" fill="none" stroke="#ffbd9b" filter="url(#bbburst-blur-2)"></use><use xlink:href="#bbburst-shape-1" width="34.557893402203476" opacity="0.05469418635568746" transform="matrix(1.7127544903331988,-0.35912679633169187,0.35912679633169187,1.7127544903331988,591.3867900486164,-497.93138881418724)" fill="#2c2891" filter="url(#bbburst-blur-4)"></use><use xlink:href="#bbburst-shape-8" width="22.41605770285795" opacity="0.6124122137262131" transform="matrix(0.7398604331392962,0.6727603878610371,-0.6727603878610371,0.7398604331392962,774.3301284749205,-35.90051536638623)" fill="none" stroke="#2c2891" filter="url(#bbburst-blur-1)"></use><use xlink:href="#bbburst-shape-10" width="31.188887790539237" opacity="0.5560573989084848" transform="matrix(0.9616914551117581,0.27413417365412396,-0.27413417365412396,0.9616914551117581,295.7862860104775,-7.9333711584187085)" fill="none" stroke="#2c2891" filter="url(#bbburst-blur-1)"></use><use xlink:href="#bbburst-shape-6" width="26.237732405910773" opacity="0.0975567541207234" transform="matrix(1.620574480389733,-0.6604834240990057,0.6604834240990057,1.620574480389733,291.65011066997494,125.88202663969162)" fill="#ffa6d5" filter="url(#bbburst-blur-4)"></use><use xlink:href="#bbburst-shape-6" width="32.74058003527344" opacity="0.1672390316150707" transform="matrix(1.113737392688818,-0.5675288716239142,0.5675288716239142,1.113737392688818,61.61502554479418,326.77894801224073)" fill="#ffa6d5" filter="url(#bbburst-blur-3)"></use><use xlink:href="#bbburst-shape-4" width="30.863455788041" opacity="0.5802931693085287" transform="matrix(0.879280249853477,0.4763047787054074,-0.4763047787054074,0.879280249853477,539.06154344692,-144.0684883180914)" fill="#ffa6d5" filter="url(#bbburst-blur-1)"></use><use xlink:href="#bbburst-shape-10" width="38.06859943525319" opacity="0.013628031184097056" transform="matrix(1.3448815842585409,1.1197292191964257,-1.1197292191964257,1.3448815842585409,1182.2923036309462,100.38506063555303)" fill="none" stroke="#ffa6d5" filter="url(#bbburst-blur-4)"></use><use xlink:href="#bbburst-shape-4" width="29.947033817645718" opacity="0.1904078421087423" transform="matrix(1.208197566711447,0.3205598848772854,-0.3205598848772854,1.208197566711447,531.2324522050886,-451.7505522457674)" fill="#ffa6d5" filter="url(#bbburst-blur-3)"></use><use xlink:href="#bbburst-shape-6" width="34.45470002641888" opacity="0.31406117112627263" transform="matrix(1.232769530591721,-0.2068315363881151,0.2068315363881151,1.232769530591721,36.046650790558544,-255.93915758283526)" fill="#ffa6d5" filter="url(#bbburst-blur-3)"></use><use xlink:href="#bbburst-shape-8" width="43.218697981999426" opacity="0.42836760121271333" transform="matrix(0.9995436063184405,-0.03020892364726482,0.03020892364726482,0.9995436063184405,513.0936673848527,212.08454698643322)" fill="none" stroke="#00a19d" filter="url(#bbburst-blur-2)"></use><use xlink:href="#bbburst-shape-6" width="25.172032297048016" opacity="0.5060144401676214" transform="matrix(0.7104959219302588,0.7037013179755113,-0.7037013179755113,0.7104959219302588,570.0612752824983,-90.31852220831135)" fill="#00a19d" filter="url(#bbburst-blur-2)"></use><use xlink:href="#bbburst-shape-6" width="27.544817563461937" opacity="0.5336842378534901" transform="matrix(0.9655213701182285,0.26032380575932534,-0.26032380575932534,0.9655213701182285,661.221620965029,132.6852275937984)" fill="#ffbd9b" filter="url(#bbburst-blur-2)"></use><use xlink:href="#bbburst-shape-10" width="34.22183388459528" opacity="0.23280451302412708" transform="matrix(0.9316775943189703,0.8333527825861122,-0.8333527825861122,0.9316775943189703,1023.0457965021837,-147.459131369663)" fill="none" stroke="#2c2891" filter="url(#bbburst-blur-3)"></use><use xlink:href="#bbburst-shape-4" width="35.16297709964624" opacity="0.18929537300701793" transform="matrix(1.1871344698526602,0.39142272607456385,-0.39142272607456385,1.1871344698526602,173.83158951663177,-35.29019771786409)" fill="#00a19d" filter="url(#bbburst-blur-3)"></use><use xlink:href="#bbburst-shape-10" width="21.09670178496276" opacity="0.7308468520603685" transform="matrix(0.8438942732360168,0.5365095111919779,-0.5365095111919779,0.8438942732360168,591.1635144937409,-63.460174724784565)" fill="none" stroke="#ffa6d5" filter="url(#bbburst-blur-1)"></use><use xlink:href="#bbburst-shape-6" width="12.738154840044217" opacity="0.9175155979645722" transform="matrix(0.8315496497841023,0.5554504297810353,-0.5554504297810353,0.8315496497841023,626.0631908443859,27.87748753813736)" fill="#00a19d"></use><use xlink:href="#bbburst-shape-6" width="17.44486176057376" opacity="0.7099523021472262" transform="matrix(0.8333228320977512,0.5527866292744273,-0.5527866292744273,0.8333228320977512,484.0513397865283,75.6050394086493)" fill="#2c2891" filter="url(#bbburst-blur-1)"></use><use xlink:href="#bbburst-shape-4" width="27.567330316838706" opacity="0.5427558334668094" transform="matrix(0.9822069191954427,-0.18780193791491379,0.18780193791491379,0.9822069191954427,159.32430095265437,148.3907382544466)" fill="#00a19d" filter="url(#bbburst-blur-2)"></use><use xlink:href="#bbburst-shape-6" width="19.44853510080285" opacity="0.6830368546787742" transform="matrix(0.7702046059916312,-0.6377968837406437,0.6377968837406437,0.7702046059916312,192.86648866958194,-33.28293495783953)" fill="#00a19d" filter="url(#bbburst-blur-1)"></use><use xlink:href="#bbburst-shape-6" width="30.545708031461537" opacity="0.33447110160568505" transform="matrix(0.894036263673643,0.4479945973295574,-0.4479945973295574,0.894036263673643,786.6742153225956,-166.43195616372876)" fill="#ffbd9b" filter="url(#bbburst-blur-2)"></use><use xlink:href="#bbburst-shape-6" width="19.64005867190726" opacity="0.7881084703013409" transform="matrix(0.9995949265068499,-0.0284601985545681,0.0284601985545681,0.9995949265068499,321.5800463945893,-75.83240532025809)" fill="#2c2891"></use><use xlink:href="#bbburst-shape-4" width="33.52534792319464" opacity="0.25858097868527563" transform="matrix(0.9897326594249285,0.7634980437877091,-0.7634980437877091,0.9897326594249285,866.2932761661077,-291.16013817468144)" fill="#ffa6d5" filter="url(#bbburst-blur-3)"></use><use xlink:href="#bbburst-shape-4" width="42.099771026266964" opacity="0.38654730627810596" transform="matrix(0.9856770407644179,0.1686439186863851,-0.1686439186863851,0.9856770407644179,171.80400340346347,27.44349933320899)" fill="#ffa6d5" filter="url(#bbburst-blur-2)"></use><use xlink:href="#bbburst-shape-6" width="19.539581950888312" opacity="0.6799192050643124" transform="matrix(0.7774100364649772,0.6289941456035365,-0.6289941456035365,0.7774100364649772,578.2720384675724,-45.27293040863492)" fill="#2c2891" filter="url(#bbburst-blur-1)"></use><use xlink:href="#bbburst-shape-6" width="16.20632673360204" opacity="0.8179742067157114" transform="matrix(0.999364692559474,-0.03564002336570319,0.03564002336570319,0.999364692559474,439.79064366938104,-52.819373671095775)" fill="#ffa6d5"></use><use xlink:href="#bbburst-shape-10" width="25.50317590753599" opacity="0.7610337731400716" transform="matrix(0.7558597169510627,0.6547336010093414,-0.6547336010093414,0.7558597169510627,737.1685538750879,155.28770292874617)" fill="none" stroke="#ffa6d5" filter="url(#bbburst-blur-1)"></use><use xlink:href="#bbburst-shape-6" width="13.277549520898138" opacity="0.9637142216063258" transform="matrix(0.9357674668671961,-0.3526177079401302,0.3526177079401302,0.9357674668671961,240.11142341337637,17.68392915757113)" fill="#ffbd9b"></use><use xlink:href="#bbburst-shape-6" width="31.12008728393497" opacity="0.18912242020570336" transform="matrix(1.2491758930553356,0.04538268622949443,-0.04538268622949443,1.2491758930553356,625.4032805046747,185.56288702788902)" fill="#ffbd9b" filter="url(#bbburst-blur-3)"></use><use xlink:href="#bbburst-shape-6" width="32.428629290746" opacity="0.4455479642265563" transform="matrix(0.9776261998195088,-0.2103497407330607,0.2103497407330607,0.9776261998195088,548.0409047546036,-14.694158318252107)" fill="#2c2891" filter="url(#bbburst-blur-2)"></use><use xlink:href="#bbburst-shape-10" width="20.015596324687333" opacity="0.5517881617435482" transform="matrix(0.9253575128236536,0.37909559936884213,-0.37909559936884213,0.9253575128236536,737.8811040318955,-23.52850048953394)" fill="none" stroke="#ff5c58" filter="url(#bbburst-blur-2)"></use><use xlink:href="#bbburst-shape-4" width="27.849691497851996" opacity="0.6551719889836258" transform="matrix(0.7782980250325873,0.627895042368049,-0.627895042368049,0.7782980250325873,782.5602528736123,141.9394873460556)" fill="#2c2891" filter="url(#bbburst-blur-1)"></use><use xlink:href="#bbburst-shape-10" width="13.693053746734842" opacity="0.8819285430845372" transform="matrix(0.9085098039533563,-0.4178635376778333,0.4178635376778333,0.9085098039533563,199.38762814317812,-6.157007939009361)" fill="none" stroke="#00a19d"></use><use xlink:href="#bbburst-shape-1" width="12.95068840269795" opacity="0.9472573933936458" transform="matrix(0.9671579799624721,0.25417600554519393,-0.25417600554519393,0.9671579799624721,505.48047433106916,32.995779510305056)" fill="#2c2891"></use><use xlink:href="#bbburst-shape-1" width="18.732025487844226" opacity="0.7776601702451321" transform="matrix(0.7723950920853144,-0.6351423633505473,0.6351423633505473,0.7723950920853144,164.26259066025136,0.27064977464630147)" fill="#ffa6d5" filter="url(#bbburst-blur-1)"></use><use xlink:href="#bbburst-shape-4" width="37.233099762656025" opacity="-0.06945458134641092" transform="matrix(1.7102035914445148,-0.3710844591333395,0.3710844591333395,1.7102035914445148,545.4521631289206,77.16977086263762)" fill="#2c2891" filter="url(#bbburst-blur-4)"></use><use xlink:href="#bbburst-shape-4" width="52.22206884214812" opacity="0.09119068959858412" transform="matrix(1.7499364135753157,-0.014918057620266649,0.014918057620266649,1.7499364135753157,130.41450690639243,46.561353216871)" fill="#2c2891" filter="url(#bbburst-blur-4)"></use><use xlink:href="#bbburst-shape-10" width="15.547588293841025" opacity="0.8513229768257915" transform="matrix(0.988840813878087,-0.14897598735676362,0.14897598735676362,0.988840813878087,373.06270013513637,58.99693009755583)" fill="none" stroke="#2c2891"></use><use xlink:href="#bbburst-shape-10" width="23.078819384882056" opacity="0.8139732625171789" transform="matrix(0.9999057495842963,0.013729236987770486,-0.013729236987770486,0.9999057495842963,318.43442637938614,35.998404604270036)" fill="none" stroke="#ff5c58"></use><use xlink:href="#bbburst-shape-4" width="46.63666066793168" opacity="-0.09186806734953956" transform="matrix(1.525311490923479,-0.8578606271748304,0.8578606271748304,1.525311490923479,373.4105300810601,-532.7670884501385)" fill="#00a19d" filter="url(#bbburst-blur-4)"></use><use xlink:href="#bbburst-shape-10" width="31.391479354608954" opacity="0.3990611174114518" transform="matrix(0.9375863613312362,0.34775251982646027,-0.34775251982646027,0.9375863613312362,288.80313755928665,152.28359688771206)" fill="none" stroke="#ffbd9b" filter="url(#bbburst-blur-2)"></use><use xlink:href="#bbburst-shape-6" width="17.813202560615725" opacity="0.7157477081531671" transform="matrix(0.9988134165526693,-0.048700707534735564,0.048700707534735564,0.9988134165526693,474.17201674838486,-75.54867467999725)" fill="#ffbd9b" filter="url(#bbburst-blur-1)"></use><use xlink:href="#bbburst-shape-1" width="44.46592409486844" opacity="0.1913441525732157" transform="matrix(1.2438009749866046,-0.12433476835693102,0.12433476835693102,1.2438009749866046,243.99126566119122,-449.9835600601545)" fill="#ff5c58" filter="url(#bbburst-blur-3)"></use><use xlink:href="#bbburst-shape-10" width="21.215610539841276" opacity="0.7419584780998297" transform="matrix(0.784747953904744,0.619815011791678,-0.619815011791678,0.784747953904744,620.310460001285,194.03097793991333)" fill="none" stroke="#2c2891" filter="url(#bbburst-blur-1)"></use><use xlink:href="#bbburst-shape-4" width="33.70841251394675" opacity="0.06357685254762124" transform="matrix(1.7227828673380057,0.3074397371951777,-0.3074397371951777,1.7227828673380057,131.24168447780067,-79.70333466903332)" fill="#00a19d" filter="url(#bbburst-blur-4)"></use><use xlink:href="#bbburst-shape-6" width="25.804152405640483" opacity="0.08261386318526598" transform="matrix(1.6896294457425667,0.45568885884961763,-0.45568885884961763,1.6896294457425667,364.7642872451761,-645.2145011038201)" fill="#ff5c58" filter="url(#bbburst-blur-4)"></use><use xlink:href="#bbburst-shape-1" width="33.52159680949994" opacity="0.397381392430608" transform="matrix(0.734888926316022,0.6781874858607201,-0.6781874858607201,0.734888926316022,475.53716535677216,-105.05408837518127)" fill="#00a19d" filter="url(#bbburst-blur-2)"></use><use xlink:href="#bbburst-shape-6" width="15.438892030293282" opacity="0.822622372713201" transform="matrix(0.9967893346942182,-0.08006885936403657,0.08006885936403657,0.9967893346942182,318.13902593930214,69.69298453426961)" fill="#2c2891"></use><use xlink:href="#bbburst-shape-8" width="16.40712597581689" opacity="0.8778488764541186" transform="matrix(0.9764408123690883,0.2157854025183234,-0.2157854025183234,0.9764408123690883,427.1158196203712,-12.378110813877129)" fill="none" stroke="#2c2891"></use><use xlink:href="#bbburst-shape-1" width="21.674204092284665" opacity="0.5625077481251417" transform="matrix(0.7981878045542313,0.602408689064904,-0.602408689064904,0.7981878045542313,703.6011191468667,-109.28611319099923)" fill="#2c2891" filter="url(#bbburst-blur-1)"></use><use xlink:href="#bbburst-shape-4" width="30.167264927896973" opacity="0.5163707459361151" transform="matrix(0.9927972834698341,-0.11980631842652505,0.11980631842652505,0.9927972834698341,513.6004088355173,-122.61807036485789)" fill="#2c2891" filter="url(#bbburst-blur-2)"></use><use xlink:href="#bbburst-shape-4" width="23.78121612881371" opacity="0.6705925171854608" transform="matrix(0.7521991267942163,0.6589358645953478,-0.6589358645953478,0.7521991267942163,522.8724555704517,159.24825272270306)" fill="#ffbd9b" filter="url(#bbburst-blur-1)"></use><use xlink:href="#bbburst-shape-10" width="38.41803310620575" opacity="0.19771635815981847" transform="matrix(1.0731008679533802,-0.6410573509427235,0.6410573509427235,1.0731008679533802,411.475651183768,200.10345865632894)" fill="none" stroke="#ff5c58" filter="url(#bbburst-blur-3)"></use><use xlink:href="#bbburst-shape-4" width="28.314860830630742" opacity="0.47119841677185725" transform="matrix(0.99889783836708,0.046937282682053286,-0.046937282682053286,0.99889783836708,294.31493300259837,210.64672875534364)" fill="#ff5c58" filter="url(#bbburst-blur-2)"></use><use xlink:href="#bbburst-shape-6" width="46.953460326463045" opacity="-0.08208279281440789" transform="matrix(1.6814794767588763,-0.48489872059915334,0.48489872059915334,1.6814794767588763,-173.2390831096821,-609.977793731631)" fill="#ffa6d5" filter="url(#bbburst-blur-4)"></use><use xlink:href="#bbburst-shape-10" width="29.990064680640273" opacity="0.3897252334790652" transform="matrix(0.9943340940661222,0.10630009114626407,-0.10630009114626407,0.9943340940661222,380.541358997774,-269.8875776765654)" fill="none" stroke="#00a19d" filter="url(#bbburst-blur-2)"></use><use xlink:href="#bbburst-shape-4" width="27.570067840618627" opacity="0.3141586841887579" transform="matrix(1.2499920389573627,-0.004461226649164488,0.004461226649164488,1.2499920389573627,667.6779549118987,14.369292816935683)" fill="#ffbd9b" filter="url(#bbburst-blur-3)"></use><use xlink:href="#bbburst-shape-10" width="30.814293790401955" opacity="0.60446336436972" transform="matrix(0.9835654814306538,-0.18055177578214554,0.18055177578214554,0.9835654814306538,310.87145362426594,187.33844027046587)" fill="none" stroke="#ffa6d5" filter="url(#bbburst-blur-1)"></use><use xlink:href="#bbburst-shape-1" width="32.530125183585575" opacity="0.30225949567906707" transform="matrix(1.073494838338556,-0.6403974016659324,0.6403974016659324,1.073494838338556,434.54320312583195,-79.25117071810934)" fill="#2c2891" filter="url(#bbburst-blur-3)"></use><use xlink:href="#bbburst-shape-6" width="12.734539978328382" opacity="0.8223944883349799" transform="matrix(0.9357329112144697,-0.352709397195614,0.352709397195614,0.9357329112144697,237.85201228241834,-50.529121420686124)" fill="#00a19d"></use><use xlink:href="#bbburst-shape-4" width="19.53829762201096" opacity="0.8051881736105521" transform="matrix(0.9304127284137873,0.3665135124461472,-0.3665135124461472,0.9304127284137873,450.8593100606795,10.968714956990539)" fill="#ffa6d5"></use><use xlink:href="#bbburst-shape-4" width="20.81601750854845" opacity="0.741446970599879" transform="matrix(0.8517775646264554,0.5239035983833521,-0.5239035983833521,0.8517775646264554,640.927145728018,163.0206056340673)" fill="#00a19d" filter="url(#bbburst-blur-1)"></use><use xlink:href="#bbburst-shape-6" width="33.332982944680474" opacity="0.282075461981413" transform="matrix(0.8984486863945417,-0.8690741958635767,0.8690741958635767,0.8984486863945417,152.75719280378064,356.87277765355964)" fill="#ffa6d5" filter="url(#bbburst-blur-3)"></use><use xlink:href="#bbburst-shape-6" width="16.496836019685023" opacity="0.7445978996435888" transform="matrix(0.9269599182143928,-0.3751603790700268,0.3751603790700268,0.9269599182143928,353.53289465229864,3.4292602719586966)" fill="#ffa6d5" filter="url(#bbburst-blur-1)"></use><use xlink:href="#bbburst-shape-4" width="15.966210647284711" opacity="0.863924662463414" transform="matrix(0.7647368921114115,0.6443426773416296,-0.6443426773416296,0.7647368921114115,710.0490002406325,107.3017748639765)" fill="#2c2891"></use><use xlink:href="#bbburst-shape-6" width="32.149150250007175" opacity="0.07352380315626228" transform="matrix(1.6182626915574763,0.6661275111516958,-0.6661275111516958,1.6182626915574763,303.2691140774939,-503.23615686659764)" fill="#ffa6d5" filter="url(#bbburst-blur-4)"></use><use xlink:href="#bbburst-shape-1" width="32.376472372073735" opacity="0.5853017924099398" transform="matrix(0.9083807090253114,-0.41814409893082616,0.41814409893082616,0.9083807090253114,287.2863248114809,216.75160574493594)" fill="#2c2891" filter="url(#bbburst-blur-1)"></use><use xlink:href="#bbburst-shape-4" width="41.707326495192106" opacity="0.3340245384684346" transform="matrix(0.799574889918929,0.6005663955060527,-0.6005663955060527,0.799574889918929,429.76292004383345,296.2980333939707)" fill="#2c2891" filter="url(#bbburst-blur-2)"></use><use xlink:href="#bbburst-shape-10" width="31.38864179911582" opacity="0.03924137866240751" transform="matrix(1.4524412268269644,0.9761733875769114,-0.9761733875769114,1.4524412268269644,1012.1914520136661,-552.8503989372783)" fill="none" stroke="#00a19d" filter="url(#bbburst-blur-4)"></use><use xlink:href="#bbburst-shape-8" width="17.682006830006014" opacity="0.7635929482040598" transform="matrix(0.8677344948782606,-0.4970280136957774,0.4970280136957774,0.8677344948782606,298.4576324094361,74.76111254152687)" fill="none" stroke="#00a19d" filter="url(#bbburst-blur-1)"></use><use xlink:href="#bbburst-shape-1" width="24.643437209569193" opacity="0.6381671667787889" transform="matrix(0.9397145363753004,0.3419599247352738,-0.3419599247352738,0.9397145363753004,631.3984639610156,143.35078817816594)" fill="#ffbd9b" filter="url(#bbburst-blur-1)"></use><use xlink:href="#bbburst-shape-4" width="21.282258753732613" opacity="0.7094541931523712" transform="matrix(0.9973040553066411,-0.0733799786653564,0.0733799786653564,0.9973040553066411,274.52141497338476,100.78001858790077)" fill="#ffa6d5" filter="url(#bbburst-blur-1)"></use><use xlink:href="#bbburst-shape-1" width="37.38411161261829" opacity="0.3048343264546659" transform="matrix(1.2471554875614235,0.0842804238564831,-0.0842804238564831,1.2471554875614235,269.62925822741965,-379.74081142629194)" fill="#2c2891" filter="url(#bbburst-blur-3)"></use><use xlink:href="#bbburst-shape-1" width="10.676139996198957" opacity="0.8562824711565651" transform="matrix(0.9526362652604464,0.30411206176445593,-0.30411206176445593,0.9526362652604464,541.3394570099067,-42.40029298694117)" fill="#ff5c58"></use><use xlink:href="#bbburst-shape-1" width="11.472533344037112" opacity="0.9318939007549295" transform="matrix(0.980127622127649,-0.19836795190352782,0.19836795190352782,0.980127622127649,343.9267737983322,-1.1193686747407128)" fill="#2c2891"></use><use xlink:href="#bbburst-shape-4" width="41.083766048922776" opacity="0.41736568850246447" transform="matrix(0.9277112287221215,-0.373298641978365,0.373298641978365,0.9277112287221215,203.39938176763928,297.2787381860839)" fill="#00a19d" filter="url(#bbburst-blur-2)"></use><use xlink:href="#bbburst-shape-1" width="23.42102035439995" opacity="0.63896061097137" transform="matrix(0.9813518462576712,-0.19222006619148807,0.19222006619148807,0.9813518462576712,458.0687088889201,-60.617738135722846)" fill="#ff5c58" filter="url(#bbburst-blur-1)"></use><use xlink:href="#bbburst-shape-4" width="20.608535554128785" opacity="0.6710286659138652" transform="matrix(0.9543524937379185,-0.29868263708527837,0.29868263708527837,0.9543524937379185,129.7906297869236,-24.031801428102142)" fill="#2c2891" filter="url(#bbburst-blur-1)"></use><use xlink:href="#bbburst-shape-1" width="20.3652457648766" opacity="0.6369919005694511" transform="matrix(0.7836029144364152,-0.6212619998734481,0.6212619998734481,0.7836029144364152,306.8698519845101,95.2047693288971)" fill="#2c2891" filter="url(#bbburst-blur-1)"></use><use xlink:href="#bbburst-shape-6" width="31.46992953196457" opacity="0.5459484603310578" transform="matrix(0.999894775493966,0.014506479237616918,-0.014506479237616918,0.999894775493966,194.0652314221852,57.52360461509835)" fill="#ff5c58" filter="url(#bbburst-blur-2)"></use><use xlink:href="#bbburst-shape-6" width="38.46777202297047" opacity="0.2072185024545451" transform="matrix(1.2400890362976582,-0.1570960917857126,0.1570960917857126,1.2400890362976582,-38.81979643386784,-150.25376913171777)" fill="#ffa6d5" filter="url(#bbburst-blur-3)"></use><use xlink:href="#bbburst-shape-4" width="37.87404455711244" opacity="0.22425936427106374" transform="matrix(1.2298432177671879,-0.22357472959180671,0.22357472959180671,1.2298432177671879,-37.77420013987009,39.59287224440743)" fill="#2c2891" filter="url(#bbburst-blur-3)"></use><use xlink:href="#bbburst-shape-1" width="54.4500111498052" opacity="-0.07478032278763513" transform="matrix(1.2471333158127071,1.2276638353352283,-1.2276638353352283,1.2471333158127071,515.0962575791493,209.86708270957286)" fill="#ffbd9b" filter="url(#bbburst-blur-4)"></use><use xlink:href="#bbburst-shape-8" width="33.590277369254764" opacity="0.13558769394404824" transform="matrix(1.0755312686750589,0.6369713416647707,-0.6369713416647707,1.0755312686750589,280.35730149483004,-196.83338951920877)" fill="none" stroke="#ffa6d5" filter="url(#bbburst-blur-3)"></use><use xlink:href="#bbburst-shape-6" width="24.42920155042917" opacity="0.4046042526430359" transform="matrix(0.7412534383347763,0.6712252529195188,-0.6712252529195188,0.7412534383347763,759.0274739021789,-153.43061433348186)" fill="#ff5c58" filter="url(#bbburst-blur-2)"></use><use xlink:href="#bbburst-shape-6" width="16.615691884431374" opacity="0.8485287440365212" transform="matrix(0.9574986417024034,-0.28843777689139893,0.28843777689139893,0.9574986417024034,342.20158899551967,0.6432870854868042)" fill="#2c2891"></use><use xlink:href="#bbburst-shape-6" width="36.347205730986644" opacity="0.1980514534361406" transform="matrix(1.2499872519497388,-0.005645348805883682,0.005645348805883682,1.2499872519497388,734.8360294649694,-72.17557738751293)" fill="#00a19d" filter="url(#bbburst-blur-3)"></use><use xlink:href="#bbburst-shape-10" width="37.31495526494143" opacity="0.30709034744425545" transform="matrix(1.162244156868575,-0.4600962071402619,0.4600962071402619,1.162244156868575,79.4615859212773,233.58742663892036)" fill="none" stroke="#ffbd9b" filter="url(#bbburst-blur-3)"></use><use xlink:href="#bbburst-shape-10" width="31.52567092808189" opacity="0.14993162140627903" transform="matrix(1.1901267046980089,-0.3822282390989163,0.3822282390989163,1.1901267046980089,360.52731941776767,-428.9945602669509)" fill="none" stroke="#2c2891" filter="url(#bbburst-blur-3)"></use><use xlink:href="#bbburst-shape-8" width="25.968956942666356" opacity="0.6083005551532843" transform="matrix(0.9932355910117171,-0.11611658256943733,0.11611658256943733,0.9932355910117171,216.14632252746276,-120.55201339292023)" fill="none" stroke="#ff5c58" filter="url(#bbburst-blur-1)"></use><use xlink:href="#bbburst-shape-4" width="21.391993484234966" opacity="0.6129330586325589" transform="matrix(0.9974764737865337,0.07099777631998405,-0.07099777631998405,0.9974764737865337,349.27437915798095,160.43404938309857)" fill="#00a19d" filter="url(#bbburst-blur-1)"></use><use xlink:href="#bbburst-shape-8" width="28.341424858229175" opacity="0.32247189721102953" transform="matrix(0.9208699305003615,0.8452801731380308,-0.8452801731380308,0.9208699305003615,776.3629380876832,-280.86696688696156)" fill="none" stroke="#ffa6d5" filter="url(#bbburst-blur-3)"></use><use xlink:href="#bbburst-shape-10" width="14.564825621883623" opacity="0.9145986940896214" transform="matrix(0.7190321351479384,0.694976825962274,-0.694976825962274,0.7190321351479384,641.559792801692,129.77161168937323)" fill="none" stroke="#ffa6d5"></use></svg>